<svg width="0" height="66" viewBox="0 0 150 66" fill="none" xmlns="http://www.w3.org/2000/svg">
<path d="M2.37784 42.3636V15.3636H6.92898V18.6108H7.19744C7.43608 18.1335 7.77273 17.6264 8.20739 17.0895C8.64205 16.544 9.23011 16.0795 9.97159 15.696C10.7131 15.304 11.6591 15.108 12.8097 15.108C14.3267 15.108 15.6946 15.4957 16.9134 16.2713C18.1406 17.0384 19.1122 18.1761 19.8281 19.6847C20.5526 21.1847 20.9148 23.0256 20.9148 25.2074C20.9148 27.3636 20.5611 29.196 19.8537 30.7045C19.1463 32.2131 18.1832 33.3636 16.9645 34.1562C15.7457 34.9489 14.3651 35.3452 12.8224 35.3452C11.6974 35.3452 10.7642 35.1577 10.0227 34.7827C9.28125 34.4077 8.68466 33.956 8.23295 33.4276C7.78977 32.8906 7.4446 32.3835 7.19744 31.9062H7.00568V42.3636H2.37784ZM6.91619 25.1818C6.91619 26.4517 7.09517 27.5639 7.45312 28.5185C7.8196 29.473 8.34375 30.2187 9.02557 30.7557C9.71591 31.2841 10.5511 31.5483 11.5312 31.5483C12.554 31.5483 13.4105 31.2756 14.1009 30.7301C14.7912 30.1761 15.3111 29.4219 15.6605 28.4673C16.0185 27.5043 16.1974 26.4091 16.1974 25.1818C16.1974 23.9631 16.0227 22.8807 15.6733 21.9347C15.3239 20.9886 14.804 20.2472 14.1136 19.7102C13.4233 19.1733 12.5625 18.9048 11.5312 18.9048C10.5426 18.9048 9.70312 19.1648 9.01278 19.6847C8.32244 20.2045 7.7983 20.9332 7.44034 21.8707C7.09091 22.8082 6.91619 23.9119 6.91619 25.1818Z" fill="#FFDE09"/>
<path d="M17.9943 57.4091C16.1023 57.4091 14.4702 56.9915 13.098 56.1562C11.7344 55.3125 10.6818 54.1364 9.94034 52.6278C9.20739 51.1108 8.84091 49.3466 8.84091 47.3352C8.84091 45.3239 9.20739 43.5511 9.94034 42.017C10.6818 40.4744 11.7131 39.2727 13.0341 38.4119C14.3636 37.5426 15.9148 37.108 17.6875 37.108C18.7102 37.108 19.7202 37.2784 20.7173 37.6193C21.7145 37.9602 22.6222 38.5142 23.4403 39.2812C24.2585 40.0398 24.9105 41.0455 25.3963 42.2983C25.8821 43.5511 26.125 45.0937 26.125 46.9261V48.2045H10.9886V45.5966H23.0568C23.0568 44.4886 22.8352 43.5 22.392 42.6307C21.9574 41.7614 21.3352 41.0753 20.5256 40.5724C19.7244 40.0696 18.7784 39.8182 17.6875 39.8182C16.4858 39.8182 15.446 40.1165 14.5682 40.7131C13.6989 41.3011 13.0298 42.0682 12.5611 43.0142C12.0923 43.9602 11.858 44.9744 11.858 46.0568V47.7955C11.858 49.2784 12.1136 50.5355 12.625 51.5668C13.1449 52.5895 13.8651 53.3693 14.7855 53.9062C15.706 54.4347 16.7756 54.6989 17.9943 54.6989C18.7869 54.6989 19.5028 54.5881 20.142 54.3665C20.7898 54.1364 21.348 53.7955 21.8168 53.3438C22.2855 52.8835 22.6477 52.3125 22.9034 51.6307L25.8182 52.4489C25.5114 53.4375 24.9957 54.3068 24.2713 55.0568C23.5469 55.7983 22.652 56.3778 21.5866 56.7955C20.5213 57.2045 19.3239 57.4091 17.9943 57.4091ZM30.7145 57V37.3636H33.6293V40.3295H33.8338C34.1918 39.358 34.8395 38.5696 35.777 37.9645C36.7145 37.3594 37.7713 37.0568 38.9474 37.0568C39.169 37.0568 39.446 37.0611 39.7784 37.0696C40.1108 37.0781 40.3622 37.0909 40.5327 37.108V40.1761C40.4304 40.1506 40.196 40.1122 39.8295 40.0611C39.4716 40.0014 39.0923 39.9716 38.6918 39.9716C37.7372 39.9716 36.8849 40.1719 36.1349 40.5724C35.3935 40.9645 34.8054 41.5099 34.3707 42.2088C33.9446 42.8991 33.7315 43.6875 33.7315 44.5739V57H30.7145ZM46.9215 49.8409L46.8704 46.108H47.484L56.0749 37.3636H59.8079L50.6545 46.6193H50.3988L46.9215 49.8409ZM44.109 57V30.8182H47.1261V57H44.109ZM56.5863 57L48.9158 47.2841L51.0636 45.1875L60.4215 57H56.5863ZM77.6001 41.7614L74.8899 42.5284C74.7195 42.0767 74.468 41.6378 74.1357 41.2116C73.8118 40.777 73.3686 40.419 72.8061 40.1378C72.2436 39.8565 71.5234 39.7159 70.6456 39.7159C69.4439 39.7159 68.4425 39.9929 67.6413 40.5469C66.8487 41.0923 66.4524 41.7869 66.4524 42.6307C66.4524 43.3807 66.7251 43.973 67.2706 44.4077C67.8161 44.8423 68.6683 45.2045 69.8274 45.4943L72.7422 46.2102C74.4979 46.6364 75.8061 47.2884 76.6669 48.1662C77.5277 49.0355 77.9581 50.1562 77.9581 51.5284C77.9581 52.6534 77.6342 53.6591 76.9865 54.5455C76.3473 55.4318 75.4524 56.1307 74.3018 56.642C73.1513 57.1534 71.8132 57.4091 70.2876 57.4091C68.2848 57.4091 66.6271 56.9744 65.3146 56.1051C64.0021 55.2358 63.1712 53.9659 62.8217 52.2955L65.6854 51.5795C65.9581 52.6364 66.4737 53.429 67.2322 53.9574C67.9993 54.4858 69.0007 54.75 70.2365 54.75C71.6428 54.75 72.7592 54.4517 73.5859 53.8551C74.4212 53.25 74.8388 52.5256 74.8388 51.6818C74.8388 51 74.6001 50.429 74.1229 49.9688C73.6456 49.5 72.9126 49.1506 71.924 48.9205L68.6513 48.1534C66.853 47.7273 65.532 47.0668 64.6882 46.1719C63.853 45.2685 63.4354 44.1392 63.4354 42.7841C63.4354 41.6761 63.7464 40.696 64.3686 39.8438C64.9993 38.9915 65.8558 38.3224 66.9382 37.8366C68.0291 37.3509 69.2649 37.108 70.6456 37.108C72.5888 37.108 74.1143 37.5341 75.2223 38.3864C76.3388 39.2386 77.1314 40.3636 77.6001 41.7614ZM85.5167 45.1875V57H82.4996V30.8182H85.5167V40.4318H85.7724C86.2326 39.4176 86.9229 38.6122 87.8434 38.0156C88.7724 37.4105 90.0082 37.108 91.5508 37.108C92.8888 37.108 94.0607 37.3764 95.0664 37.9134C96.0721 38.4418 96.8519 39.2557 97.4059 40.3551C97.9684 41.446 98.2496 42.8352 98.2496 44.5227V57H95.2326V44.7273C95.2326 43.1676 94.8278 41.9616 94.0181 41.1094C93.217 40.2486 92.1048 39.8182 90.6815 39.8182C89.6928 39.8182 88.8065 40.027 88.0224 40.4446C87.2468 40.8622 86.6332 41.4716 86.1815 42.2727C85.7383 43.0739 85.5167 44.0455 85.5167 45.1875ZM116.144 48.9716V37.3636H119.161V57H116.144V53.6761H115.94C115.479 54.6733 114.763 55.5213 113.792 56.2202C112.82 56.9105 111.593 57.2557 110.11 57.2557C108.883 57.2557 107.792 56.9872 106.837 56.4503C105.883 55.9048 105.133 55.0866 104.587 53.9957C104.042 52.8963 103.769 51.5114 103.769 49.8409V37.3636H106.786V49.6364C106.786 51.0682 107.187 52.2102 107.988 53.0625C108.798 53.9148 109.829 54.3409 111.082 54.3409C111.832 54.3409 112.594 54.1491 113.37 53.7656C114.154 53.3821 114.81 52.794 115.339 52.0014C115.876 51.2088 116.144 50.1989 116.144 48.9716ZM125.096 57V30.8182H128.113V40.483H128.369C128.591 40.142 128.897 39.7074 129.289 39.179C129.69 38.642 130.261 38.1648 131.002 37.7472C131.752 37.321 132.767 37.108 134.045 37.108C135.699 37.108 137.156 37.5213 138.417 38.348C139.679 39.1747 140.663 40.3466 141.37 41.8636C142.078 43.3807 142.431 45.1705 142.431 47.233C142.431 49.3125 142.078 51.1151 141.37 52.6406C140.663 54.1577 139.683 55.3338 138.43 56.169C137.177 56.9957 135.733 57.4091 134.096 57.4091C132.835 57.4091 131.825 57.2003 131.066 56.7827C130.308 56.3565 129.724 55.875 129.315 55.3381C128.906 54.7926 128.591 54.3409 128.369 53.983H128.011V57H125.096ZM128.062 47.1818C128.062 48.6648 128.279 49.973 128.714 51.1065C129.149 52.2315 129.784 53.1136 130.619 53.7528C131.454 54.3835 132.477 54.6989 133.687 54.6989C134.949 54.6989 136.001 54.3665 136.845 53.7017C137.697 53.0284 138.336 52.125 138.762 50.9915C139.197 49.8494 139.414 48.5795 139.414 47.1818C139.414 45.8011 139.201 44.5568 138.775 43.4489C138.358 42.3324 137.723 41.4503 136.87 40.8026C136.027 40.1463 134.966 39.8182 133.687 39.8182C132.46 39.8182 131.429 40.1293 130.593 40.7514C129.758 41.3651 129.127 42.2259 128.701 43.3338C128.275 44.4332 128.062 45.7159 128.062 47.1818Z" fill="black"/>
<circle cx="126.5" cy="25.5" r="5.5" fill="#FFDE09"/>
</svg>
