<svg width="68" height="34" viewBox="0 0 68 34" fill="none" xmlns="http://www.w3.org/2000/svg">
<path d="M1.58523 27.9091V9.90909H4.61932V12.0739H4.7983C4.95739 11.7557 5.18182 11.4176 5.47159 11.0597C5.76136 10.696 6.15341 10.3864 6.64773 10.1307C7.14205 9.86932 7.77273 9.73864 8.53977 9.73864C9.55114 9.73864 10.4631 9.99716 11.2756 10.5142C12.0938 11.0256 12.7415 11.7841 13.2188 12.7898C13.7017 13.7898 13.9432 15.017 13.9432 16.4716C13.9432 17.9091 13.7074 19.1307 13.2358 20.1364C12.7642 21.142 12.1222 21.9091 11.3097 22.4375C10.4972 22.9659 9.5767 23.2301 8.5483 23.2301C7.7983 23.2301 7.17614 23.1051 6.68182 22.8551C6.1875 22.6051 5.78977 22.304 5.48864 21.9517C5.19318 21.5937 4.96307 21.2557 4.7983 20.9375H4.67045V27.9091H1.58523ZM4.6108 16.4545C4.6108 17.3011 4.73011 18.0426 4.96875 18.679C5.21307 19.3153 5.5625 19.8125 6.01705 20.1705C6.47727 20.5227 7.03409 20.6989 7.6875 20.6989C8.36932 20.6989 8.94034 20.517 9.40057 20.1534C9.8608 19.7841 10.2074 19.2812 10.4403 18.6449C10.679 18.0028 10.7983 17.2727 10.7983 16.4545C10.7983 15.642 10.6818 14.9205 10.4489 14.2898C10.2159 13.6591 9.86932 13.1648 9.40909 12.8068C8.94886 12.4489 8.375 12.2699 7.6875 12.2699C7.02841 12.2699 6.46875 12.4432 6.00852 12.7898C5.5483 13.1364 5.19886 13.6222 4.96023 14.2472C4.72727 14.8722 4.6108 15.608 4.6108 16.4545Z" fill="#FFDE09"/>
<path d="M18.6648 21.1364C18.0341 21.1364 17.4901 20.9972 17.0327 20.7188C16.5781 20.4375 16.2273 20.0455 15.9801 19.5426C15.7358 19.0369 15.6136 18.4489 15.6136 17.7784C15.6136 17.108 15.7358 16.517 15.9801 16.0057C16.2273 15.4915 16.571 15.0909 17.0114 14.804C17.4545 14.5142 17.9716 14.3693 18.5625 14.3693C18.9034 14.3693 19.2401 14.4261 19.5724 14.5398C19.9048 14.6534 20.2074 14.8381 20.4801 15.0938C20.7528 15.3466 20.9702 15.6818 21.1321 16.0994C21.294 16.517 21.375 17.0312 21.375 17.642V18.0682H16.3295V17.1989H20.3523C20.3523 16.8295 20.2784 16.5 20.1307 16.2102C19.9858 15.9205 19.7784 15.6918 19.5085 15.5241C19.2415 15.3565 18.9261 15.2727 18.5625 15.2727C18.1619 15.2727 17.8153 15.3722 17.5227 15.571C17.233 15.767 17.0099 16.0227 16.8537 16.3381C16.6974 16.6534 16.6193 16.9915 16.6193 17.3523V17.9318C16.6193 18.4261 16.7045 18.8452 16.875 19.1889C17.0483 19.5298 17.2884 19.7898 17.5952 19.9688C17.902 20.1449 18.2585 20.233 18.6648 20.233C18.929 20.233 19.1676 20.196 19.3807 20.1222C19.5966 20.0455 19.7827 19.9318 19.9389 19.7812C20.0952 19.6278 20.2159 19.4375 20.3011 19.2102L21.2727 19.483C21.1705 19.8125 20.9986 20.1023 20.7571 20.3523C20.5156 20.5994 20.2173 20.7926 19.8622 20.9318C19.5071 21.0682 19.108 21.1364 18.6648 21.1364ZM22.9048 21V14.4545H23.8764V15.4432H23.9446C24.0639 15.1193 24.2798 14.8565 24.5923 14.6548C24.9048 14.4531 25.2571 14.3523 25.6491 14.3523C25.723 14.3523 25.8153 14.3537 25.9261 14.3565C26.0369 14.3594 26.1207 14.3636 26.1776 14.3693V15.392C26.1435 15.3835 26.0653 15.3707 25.9432 15.3537C25.8239 15.3338 25.6974 15.3239 25.5639 15.3239C25.2457 15.3239 24.9616 15.3906 24.7116 15.5241C24.4645 15.6548 24.2685 15.8366 24.1236 16.0696C23.9815 16.2997 23.9105 16.5625 23.9105 16.858V21H22.9048ZM28.3072 18.6136L28.2901 17.3693H28.4947L31.3583 14.4545H32.6026L29.5515 17.5398H29.4663L28.3072 18.6136ZM27.3697 21V12.2727H28.3754V21H27.3697ZM31.5288 21L28.9719 17.7614L29.6879 17.0625L32.8072 21H31.5288ZM38.5334 15.9205L37.63 16.1761C37.5732 16.0256 37.4893 15.8793 37.3786 15.7372C37.2706 15.5923 37.1229 15.473 36.9354 15.3793C36.7479 15.2855 36.5078 15.2386 36.2152 15.2386C35.8146 15.2386 35.4808 15.331 35.2138 15.5156C34.9496 15.6974 34.8175 15.929 34.8175 16.2102C34.8175 16.4602 34.9084 16.6577 35.0902 16.8026C35.272 16.9474 35.5561 17.0682 35.9425 17.1648L36.9141 17.4034C37.4993 17.5455 37.9354 17.7628 38.2223 18.0554C38.5092 18.3452 38.6527 18.7187 38.6527 19.1761C38.6527 19.5511 38.5447 19.8864 38.3288 20.1818C38.1158 20.4773 37.8175 20.7102 37.4339 20.8807C37.0504 21.0511 36.6044 21.1364 36.0959 21.1364C35.4283 21.1364 34.8757 20.9915 34.4382 20.7017C34.0007 20.4119 33.7237 19.9886 33.6072 19.4318L34.5618 19.1932C34.6527 19.5455 34.8246 19.8097 35.0774 19.9858C35.3331 20.1619 35.6669 20.25 36.0788 20.25C36.5476 20.25 36.9197 20.1506 37.1953 19.9517C37.4737 19.75 37.6129 19.5085 37.6129 19.2273C37.6129 19 37.5334 18.8097 37.3743 18.6562C37.2152 18.5 36.9709 18.3835 36.6413 18.3068L35.5504 18.0511C34.951 17.9091 34.5107 17.6889 34.2294 17.3906C33.951 17.0895 33.8118 16.7131 33.8118 16.2614C33.8118 15.892 33.9155 15.5653 34.1229 15.2812C34.3331 14.9972 34.6186 14.7741 34.9794 14.6122C35.343 14.4503 35.755 14.3693 36.2152 14.3693C36.8629 14.3693 37.3714 14.5114 37.7408 14.7955C38.1129 15.0795 38.3771 15.4545 38.5334 15.9205ZM41.1722 17.0625V21H40.1665V12.2727H41.1722V15.4773H41.2575C41.4109 15.1392 41.641 14.8707 41.9478 14.6719C42.2575 14.4702 42.6694 14.3693 43.1836 14.3693C43.6296 14.3693 44.0202 14.4588 44.3555 14.6378C44.6907 14.8139 44.9506 15.0852 45.1353 15.4517C45.3228 15.8153 45.4165 16.2784 45.4165 16.8409V21H44.4109V16.9091C44.4109 16.3892 44.2759 15.9872 44.006 15.7031C43.739 15.4162 43.3683 15.2727 42.8938 15.2727C42.5643 15.2727 42.2688 15.3423 42.0075 15.4815C41.7489 15.6207 41.5444 15.8239 41.3938 16.0909C41.2461 16.358 41.1722 16.6818 41.1722 17.0625ZM51.3814 18.3239V14.4545H52.3871V21H51.3814V19.892H51.3132C51.1598 20.2244 50.9212 20.5071 50.5973 20.7401C50.2734 20.9702 49.8643 21.0852 49.37 21.0852C48.9609 21.0852 48.5973 20.9957 48.2791 20.8168C47.9609 20.6349 47.7109 20.3622 47.5291 19.9986C47.3473 19.6321 47.2564 19.1705 47.2564 18.6136V14.4545H48.2621V18.5455C48.2621 19.0227 48.3956 19.4034 48.6626 19.6875C48.9325 19.9716 49.2763 20.1136 49.6939 20.1136C49.9439 20.1136 50.1982 20.0497 50.4567 19.9219C50.718 19.794 50.9368 19.598 51.1129 19.3338C51.2919 19.0696 51.3814 18.733 51.3814 18.3239ZM54.3654 21V12.2727H55.3711V15.4943H55.4563C55.5302 15.3807 55.6325 15.2358 55.7631 15.0597C55.8967 14.8807 56.087 14.7216 56.3342 14.5824C56.5842 14.4403 56.9222 14.3693 57.3484 14.3693C57.8995 14.3693 58.3853 14.5071 58.8058 14.7827C59.2262 15.0582 59.5543 15.4489 59.7901 15.9545C60.0259 16.4602 60.1438 17.0568 60.1438 17.7443C60.1438 18.4375 60.0259 19.0384 59.7901 19.5469C59.5543 20.0526 59.2276 20.4446 58.81 20.723C58.3924 20.9986 57.9109 21.1364 57.3654 21.1364C56.945 21.1364 56.6083 21.0668 56.3555 20.9276C56.1026 20.7855 55.908 20.625 55.7717 20.446C55.6353 20.2642 55.5302 20.1136 55.4563 19.9943H55.337V21H54.3654ZM55.354 17.7273C55.354 18.2216 55.4265 18.6577 55.5714 19.0355C55.7163 19.4105 55.9279 19.7045 56.2063 19.9176C56.4847 20.1278 56.8256 20.233 57.229 20.233C57.6495 20.233 58.0004 20.1222 58.2816 19.9006C58.5657 19.6761 58.7788 19.375 58.9208 18.9972C59.0657 18.6165 59.1381 18.1932 59.1381 17.7273C59.1381 17.267 59.0671 16.8523 58.9251 16.483C58.7859 16.1108 58.5742 15.8168 58.2901 15.6009C58.0089 15.3821 57.6552 15.2727 57.229 15.2727C56.82 15.2727 56.4762 15.3764 56.1978 15.5838C55.9194 15.7884 55.7092 16.0753 55.5671 16.4446C55.4251 16.8111 55.354 17.2386 55.354 17.7273Z" fill="black"/>
<circle cx="62.5" cy="26.5" r="5.5" fill="#FFDE09"/>
</svg>
